# xmcd CD database file
#
# Track frame offsets:
#	150
#	30525
#	69192
#	102112
#	132550
#	161965
#	183817
#	203327
#	231050
#	262455
#
# Disc length: 3992 seconds
#
# Revision: 0
# Processed by: cddbd v1.4PL0 Copyright (c) Steve Scherf et al.
# Submitted via: CDex 1.50
#
DISCID=850f960a
DTITLE=John Coates - The Omnisound Years
DYEAR=1900
DGENRE=Jazz
TTITLE0=Love is Enough
TTITLE1=Yesterday
TTITLE2=Love For Sale
TTITLE3=Prologue (No. 39)
TTITLE4=When It's Sleepy Time Down South
TTITLE5=The Prince
TTITLE6=Never Have Known An Esther
TTITLE7=Homage
TTITLE8=Song Sung Blue
TTITLE9=Themette
EXTD=
EXTT0=
EXTT1=
EXTT2=
EXTT3=
EXTT4=
EXTT5=
EXTT6=
EXTT7=
EXTT8=
EXTT9=
PLAYORDER=
